<?xml version="1.0" encoding="UTF-8" standalone="no"?>
<!-- Created with Inkscape (http://www.inkscape.org/) -->

<svg
   width="1000mm"
   height="1000mm"
   viewBox="0 0 1000 1000"
   version="1.1"
   id="svg68544"
   xml:space="preserve"
   inkscape:version="1.2.1 (9c6d41e, 2022-07-14)"
   sodipodi:docname="sample-poo-3.svg"
   xmlns:inkscape="http://www.inkscape.org/namespaces/inkscape"
   xmlns:sodipodi="http://sodipodi.sourceforge.net/DTD/sodipodi-0.dtd"
   xmlns="http://www.w3.org/2000/svg"
   xmlns:svg="http://www.w3.org/2000/svg"><sodipodi:namedview
     id="namedview68546"
     pagecolor="#ffffff"
     bordercolor="#666666"
     borderopacity="1.0"
     inkscape:showpageshadow="2"
     inkscape:pageopacity="0.0"
     inkscape:pagecheckerboard="0"
     inkscape:deskcolor="#d1d1d1"
     inkscape:document-units="mm"
     showgrid="false"
     inkscape:zoom="0.33318625"
     inkscape:cx="1890.8344"
     inkscape:cy="951.41982"
     inkscape:window-width="1333"
     inkscape:window-height="678"
     inkscape:window-x="2052"
     inkscape:window-y="38"
     inkscape:window-maximized="0"
     inkscape:current-layer="g73237" /><defs
     id="defs68541" /><g
     inkscape:label="Layer 1"
     inkscape:groupmode="layer"
     id="layer1"><text
       xml:space="preserve"
       style="font-style:normal;font-weight:normal;font-size:10.5833px;line-height:1.25;font-family:sans-serif;fill:#000000;fill-opacity:1;stroke:none;stroke-width:0.264583"
       x="41.529659"
       y="171.15254"
       id="text69082"><tspan
         sodipodi:role="line"
         id="tspan69080"
         style="stroke-width:0.264583"
         x="41.529659"
         y="171.15254" /></text><circle
       id="path69634"
       style="fill:#808080;stroke:#000000;stroke-width:0.264583"
       cx="99.352638"
       cy="152.64822"
       r="0" /><circle
       id="path69642"
       style="fill:#808080;stroke:#000000;stroke-width:0.264583"
       cx="88.920616"
       cy="144.06133"
       r="0" /><g
       id="g73237"
       transform="matrix(2.7095348,0,0,2.7027266,-186.35096,-260.82216)"><path
         style="color:#000000;fill:#000000;stroke-width:3.66258;-inkscape-stroke:none"
         d="m 274.94255,308.91592 c -9.0024,4.79207 -18.24051,9.24157 -27.9687,12.36547 -6.15062,2.05348 -12.38754,3.84836 -18.69072,5.37078 -1.37289,3.24151 -3.92981,5.7613 -5.69599,8.76982 10.74965,-2.47952 21.52561,-5.0488 31.85544,-8.97573 7.14926,-2.79518 14.15189,-5.95602 21.0322,-9.35728 -0.085,-1.39769 0.12619,-2.79036 0.0991,-4.18427 -0.13764,-1.33953 -0.40605,-2.66213 -0.63131,-3.98879 z"
         id="path73316"
         sodipodi:nodetypes="ccccccc" /><path
         style="color:#000000;fill:#121212;fill-opacity:1;stroke:none;stroke-width:3.66258;-inkscape-stroke:none"
         d="m 114.65824,333.47972 c -0.86987,1.75872 -0.0455,3.74082 0.72643,5.37415 2.19513,4.3473 5.59014,7.90094 8.38258,11.84809 0.96323,0.30619 2.3114,-0.20128 3.42437,-0.21414 14.5488,-1.69604 29.078,-3.57715 43.56041,-5.76992 0.97713,-0.20437 2.48486,-0.56825 2.38578,-1.84515 -0.36613,-1.50283 -1.67987,-2.51391 -2.66956,-3.61747 -0.98806,-0.65699 -1.5555,-2.29388 -2.68704,-2.41877 -12.76773,1.24382 -25.63262,2.07041 -38.45343,1.2065 -3.64468,-0.28994 -7.05792,-1.6982 -10.39102,-3.10322 -1.39831,-0.56334 -2.82045,-1.07336 -4.27852,-1.46007 z"
         id="path73310" /><path
         style="color:#000000;fill:#000000;stroke-width:3.66258;-inkscape-stroke:none"
         d="m 357.398,238.88177 c -0.88732,0.25038 -1.94054,0.25969 -2.72595,0.65815 -4.43264,6.77982 -9.24846,13.31914 -14.54102,19.45468 3.30169,4.4609 5.78784,9.45876 7.7428,14.63685 2.80856,-1.81049 5.57937,-3.67864 8.38208,-5.49806 1.52403,-8.84353 2.49077,-17.90408 1.47991,-26.86106 -0.11919,-0.7959 -0.22503,-1.59374 -0.33782,-2.39056 z m -3.61995,20.94558 c -36.5298,-20.93386 -73.05961,-41.86773 -109.58941,-62.80159 36.5298,20.93387 73.05961,41.86773 109.58941,62.80159 z"
         id="path73322"
         sodipodi:nodetypes="ccccccccssscscccccscscccsccccccccccscccscccccccccc" /><path
         style="color:#000000;fill:#000000;stroke-width:3.66258;-inkscape-stroke:none"
         d="m 202.6096,96.753708 c 7.12282,11.574282 12.30936,26.067412 6.5508,39.296292 -5.15406,13.05158 -16.53415,24.95773 -13.77802,40.01072 2.79895,6.98085 1.76753,10.63672 -6.1587,11.83727 -14.13138,5.6913 -28.04488,14.46803 -34.46753,28.90383 -8.81157,16.12943 -9.71329,36.5796 -0.67759,52.82078 -12.91533,5.30801 -26.60661,10.44941 -36.78989,20.31876 -13.3265,17.03742 -9.74414,42.37021 3.35823,58.46924 -13.75343,3.05375 -26.511455,9.95881 -37.477563,18.6613 -11.650902,15.38749 -19.414291,36.56934 -11.040491,55.29291 6.418448,14.6605 19.460115,25.51687 33.689654,32.24527 37.3468,-2.41635 74.69725,-4.78482 112.04546,-7.18276 45.55205,11.54844 92.8681,11.3015 139.5159,10.18955 9.94857,-0.35655 20.1246,0.90994 29.64686,-2.79662 22.04657,-6.30174 44.18601,-21.72255 49.67912,-45.16941 4.419,-17.75723 -5.75291,-36.2338 -20.94397,-45.33625 -8.20381,-5.33634 -17.42352,-8.92946 -26.82933,-11.51117 6.59686,-14.76992 12.8237,-31.56407 8.46867,-47.80643 -6.33325,-18.37894 -24.31154,-29.29628 -41.22281,-36.71154 1.77039,-11.8571 4.17204,-24.92482 -1.13854,-36.20051 -9.90977,-14.59031 -27.6143,-22.14521 -44.72107,-23.82935 -4.32192,-8.22905 4.87402,-17.30287 2.11625,-26.34274 C 309.49772,161.7581 293.67082,146.57463 278.40203,134.55903 255.7244,117.43581 229.43128,105.73212 202.6096,96.753708 Z m 6.52379,6.330122 c 31.37679,11.48875 62.76871,26.63007 85.62324,51.65827 9.5961,10.8199 18.03414,26.06712 12.43242,40.75493 -2.02705,4.93763 -4.01922,13.09988 1.71667,16.09072 16.62242,1.3869 34.24172,8.69339 43.39277,23.25809 3.94275,11.42818 1.84141,23.87708 -0.18526,35.49418 16.90793,7.10358 35.06232,17.57694 41.75304,35.68114 4.13151,16.03965 -2.56181,32.43487 -8.94091,46.97855 -2.22637,5.13947 10.97552,3.31742 14.09485,6.69945 17.00574,6.3086 34.18012,20.0035 34.9602,39.5682 0.66845,21.8547 -17.02588,39.18847 -35.73702,47.48972 -10.40018,4.6676 -21.64387,7.94204 -33.1317,7.10103 -46.70188,0.86975 -94.02551,2.21824 -139.85403,-8.44988 -7.13874,-2.79573 -14.66264,-0.90094 -22.05111,-0.71922 -32.21086,2.06768 -64.42172,4.13535 -96.63258,6.20303 -18.157828,-8.63056 -35.289782,-25.88021 -34.269848,-47.34837 0.710976,-12.77581 6.545673,-25.09292 14.61302,-34.77168 11.807648,-8.70351 25.346178,-15.66132 39.944248,-17.98154 -14.52138,-14.71378 -19.69814,-39.7108 -7.60289,-57.42509 8.91443,-9.6522 21.89314,-14.15502 33.63804,-19.40662 7.04802,-0.77098 6.25982,-3.94094 2.69512,-8.72113 -9.51391,-20.38265 -2.65726,-45.8963 13.07882,-61.17561 9.60415,-8.00069 21.30309,-13.03581 33.10725,-16.84939 -5.3027,-10.44166 -3.92514,-22.98544 2.07922,-32.80261 6.60286,-11.60086 14.58903,-24.87696 10.0618,-38.69891 -1.17743,-4.35233 -2.88649,-8.55141 -4.78536,-12.62726 z"
         id="path69216" /><path
         style="color:#000000;fill:#000000;stroke-width:3.66258;-inkscape-stroke:none"
         d="m 194.96487,240.10137 c -11.16731,-0.0942 -21.47193,6.19545 -28.34075,14.69758 -10.34135,12.73761 -14.62178,29.58452 -14.03849,45.78952 0.57549,15.23362 5.55461,30.77089 15.98428,42.14789 7.07648,7.77744 17.36861,13.0915 28.05919,12.42558 11.41284,-0.52767 21.55634,-7.54754 28.17562,-16.54389 10.0541,-13.62082 13.72013,-31.19103 12.29301,-47.87325 -1.28841,-14.5394 -6.67867,-29.1943 -17.14375,-39.64244 -6.59414,-6.58457 -15.54073,-11.06634 -24.98911,-11.00099 z m 0,3.65869 c 10.46925,-0.0899 20.02554,6.11394 26.22385,14.22213 9.46483,12.26287 13.20154,28.21705 12.45324,43.5117 -0.75691,14.36413 -5.58988,29.0025 -15.68269,39.53666 -6.697,7.08692 -16.55929,11.62676 -26.41575,10.30915 -10.96745,-1.30016 -20.07128,-9.07545 -25.7379,-18.19194 -8.82565,-14.19259 -11.29836,-31.76756 -8.5435,-48.10414 2.27096,-12.99313 8.15276,-25.88191 18.6053,-34.29193 5.39054,-4.30603 12.1457,-7.03103 19.09745,-6.99163 z"
         id="path72115" /><path
         id="ellipse72133"
         style="fill:#1a1a1a;stroke-width:3.66258"
         d="m 189.87413,268.71333 c -7.09727,0.18919 -11.62311,7.05163 -13.69149,13.11658 -1.88405,5.48497 -2.46303,11.38301 -1.92463,17.14613 0.84029,-8.62859 3.64255,-17.97118 10.80444,-23.45501 4.33738,-3.45848 10.87112,-3.18867 15.02634,0.42176 l 1.42411,1.24926 c -2.34379,-4.28992 -6.41266,-8.47213 -11.63877,-8.47872 z" /><path
         style="color:#000000;fill:#000000;stroke-width:3.66258;-inkscape-stroke:none"
         d="m 179.07,367.09133 c -0.1915,7.07013 2.77688,13.83392 7.01113,19.36998 7.95798,10.38876 18.96915,18.01749 30.47744,24.00705 16.11326,8.14543 34.11588,13.25087 52.27525,12.67664 13.39491,-0.42436 27.11721,-4.83644 36.81546,-14.38899 10.39556,-10.04877 15.3635,-24.41664 16.95502,-38.51245 -0.28941,-0.81817 0.96443,-3.04518 -0.1261,-3.15223 -47.80273,0 -95.60547,0 -143.4082,0 z m 4.4524,3.67802 c 44.98208,0 89.96417,0 134.94625,0 -1.69004,13.08116 -6.20174,26.49947 -15.93972,35.81787 -9.34188,9.04253 -22.62609,12.75058 -35.36785,12.92399 -17.9279,0.20414 -35.59847,-5.1808 -51.31588,-13.57904 -11.00943,-6.06437 -21.70229,-13.71633 -28.3887,-24.59575 -1.92971,-3.24303 -3.42935,-6.80599 -3.9341,-10.56707 z"
         id="rect72143" /><path
         style="color:#000000;fill:#000000;stroke-width:3.66258;-inkscape-stroke:none"
         d="m 311.22866,174.08978 c -2.77525,6.21997 -5.63502,12.43545 -9.50015,18.07177 -10.97808,16.56692 -26.72139,29.34071 -43.49843,39.6876 -10.69821,6.61771 -21.90583,12.35926 -33.18422,17.91198 0.45166,1.12921 0.90333,2.25841 1.35499,3.38762 19.87242,-6.30025 39.91313,-12.67372 58.37307,-22.52562 9.1869,-4.9876 17.9194,-11.11077 24.75161,-19.09779 1.30993,0 2.61985,0 3.92978,0 -1.38651,-1.49909 -3.10982,-2.73397 -4.14396,-4.51482 -1.50904,-3.21125 0.2931,-6.53312 1.14134,-9.65285 1.69265,-5.0675 2.68493,-10.45312 1.97541,-15.79827 -0.33771,-2.49881 -0.80196,-4.97967 -1.19944,-7.46962 z"
         id="path73342"
         sodipodi:nodetypes="ccccccccccccccccccc" /><path
         style="color:#000000;fill:#000000;stroke:none;stroke-width:3.66258;-inkscape-stroke:none"
         d="m 199.37679,157.69333 c -0.30409,0.0104 -0.75829,-0.29622 -0.96565,-0.0814 -0.58651,1.09084 -1.20421,2.17016 -1.54962,3.36917 -1.36074,3.75616 -2.12831,7.7221 -2.16269,11.72091 -0.24127,1.68481 0.24564,3.36976 0.53358,5.02174 0.42679,2.26104 1.0989,4.49191 1.23276,6.79711 0.0775,1.04406 -1.30664,0.85054 -1.97244,1.2917 -0.85175,0.31618 -1.70351,0.63235 -2.55526,0.94853 1.26473,1.38733 2.52946,2.77467 3.79419,4.162 8.06602,-0.21759 15.89173,-2.7596 23.07811,-6.30826 6.71626,-3.28975 12.98669,-7.38677 19.31656,-11.34729 -0.42589,-1.11632 -0.85179,-2.23264 -1.27768,-3.34896 -6.6919,0.96847 -13.48929,1.43118 -20.2424,0.93088 -4.0388,-0.37891 -8.22502,-0.98734 -11.76945,-3.09255 -1.76595,-1.00928 -3.20811,-2.74027 -3.43242,-4.81389 -0.10748,-1.03279 -0.0954,-2.10197 -0.15165,-3.11927 0.28257,-0.70677 0.56513,-1.41353 0.8477,-2.1203 -0.90788,-0.003 -1.81576,-0.007 -2.72364,-0.0101 z"
         id="path73348"
         sodipodi:nodetypes="ccccccccccccccccccccccccsccccccccccccccccccccccc" /><path
         style="color:#000000;fill:#000000;stroke-width:3.66258;-inkscape-stroke:none"
         d="m 313.12571,240.10137 c -11.16732,-0.0942 -21.4719,6.19548 -28.34074,14.69758 -10.34137,12.7376 -14.62176,29.58453 -14.03848,45.78952 0.57551,15.23361 5.55458,30.77092 15.98428,42.14789 7.0765,7.77742 17.3686,13.09151 28.05917,12.42558 11.41286,-0.52767 21.55641,-7.54752 28.17571,-16.54389 10.12519,-13.71905 13.79909,-31.43406 12.27894,-48.23062 -1.36002,-14.51139 -6.82403,-29.11879 -17.33708,-39.48838 -6.56365,-6.47329 -15.43975,-10.86315 -24.7818,-10.79768 z m 0,3.65869 c 10.46928,-0.0899 20.02562,6.11391 26.22394,14.22213 9.46475,12.26291 13.20143,28.21706 12.45314,43.5117 -0.75693,14.36411 -5.58981,29.00249 -15.68259,39.53666 -6.69687,7.08672 -16.55891,11.62667 -26.41517,10.30915 -10.86303,-1.28598 -19.89961,-8.94775 -25.5649,-17.94823 -8.95855,-14.22659 -11.49644,-31.91687 -8.71323,-48.34785 2.27988,-12.99269 8.17061,-25.87451 18.61549,-34.29193 5.38489,-4.30658 12.1356,-7.03167 19.08332,-6.99163 z"
         id="ellipse72139" /><path
         id="path72141"
         style="fill:#1a1a1a;stroke-width:3.66258"
         d="m 308.23393,268.71333 c -7.09727,0.18919 -11.62311,7.05163 -13.69149,13.11658 -1.88405,5.48497 -2.46302,11.38301 -1.92464,17.14613 0.84029,-8.62859 3.64255,-17.97119 10.80445,-23.45501 4.33738,-3.45849 10.87112,-3.18867 15.02634,0.42176 l 1.42411,1.24926 c -2.34379,-4.28992 -6.41266,-8.47213 -11.63877,-8.47872 z" /><g
         id="path72449"
         transform="matrix(9.9114117,0,0,9.9114117,-827.26735,-1240.59)"
         style="stroke-width:0.369532"><path
           style="color:#000000;fill:#000000;stroke-width:0.369532;-inkscape-stroke:none"
           d="m 105.55841,170.14775 c -0.0629,0.0275 -0.12867,0.0563 -0.12867,0.0563 0,0 0.056,-0.0174 0.1571,-0.0496 -0.009,-0.002 -0.0189,-0.004 -0.0284,-0.007 z"
           id="path73358" /><path
           style="color:#000000;fill:#000000;-inkscape-stroke:none"
           d="m 105.39648,169.90234 -0.0117,0.11914 v 0.002 c -4.5e-4,1.4e-4 -0.01,0.004 -0.01,0.004 -0.003,0.001 -0.0195,0.008 -0.0195,0.008 l 0.0234,0.0605 -0.004,0.0332 0.01,-0.0137 0.0996,0.26563 c 0,0 0.0566,-0.0184 0.1582,-0.0508 l 0.65234,-0.20703 -0.66797,-0.14844 c -0.0115,-0.003 -0.0168,-0.005 -0.0137,-0.004 z"
           id="path73360" /></g><path
         style="color:#000000;fill:#000000;stroke-width:3.64592;-inkscape-stroke:none"
         d="m 397.88492,319.35391 c -1.50367,1.05195 -3.38016,1.71895 -4.64229,3.0203 -11.48044,18.61778 -28.13335,33.31515 -45.17343,46.72099 -12.01789,9.32117 -24.6164,17.87052 -37.48426,25.9692 -6.15941,11.87063 -17.86589,20.26197 -30.90322,22.96088 -3.79227,0.94569 -7.75859,1.14369 -11.59472,1.55471 -18.06335,9.61484 -36.41887,18.70282 -55.1807,26.87943 2.16341,0.39059 4.38024,0.97404 6.50795,1.26676 36.47399,-11.96968 72.15149,-26.60749 105.97738,-44.80456 24.23911,-13.31304 47.99149,-28.48087 66.89206,-48.91666 -1.41669,-0.86706 -5.43092,-0.49336 -4.22237,-2.53283 4.03927,-9.08012 7.02981,-18.64001 8.71422,-28.42999 0.3698,-1.22941 0.73959,-2.45882 1.10938,-3.68823 z"
         id="path73366"
         sodipodi:nodetypes="cccccccscccccccccccccccccccccccccccccccccccccccccccccccccccccccccccsccc" /><path
         style="color:#000000;fill:#000000;stroke-width:3.66258;-inkscape-stroke:none"
         d="m 82.782208,432.98675 c 0.09677,2.03261 0.20061,4.06488 0.290803,6.0978 1.201296,0.14403 1.747476,1.37749 2.65355,2.04773 5.905523,5.41555 12.614336,10.00006 19.884649,13.38033 0.81715,0.20206 1.71556,-0.0676 2.56493,-0.0526 23.04427,-1.47927 46.08853,-2.95855 69.1328,-4.43782 0.18072,-1.1744 0.36143,-2.34881 0.54215,-3.52321 -1.10244,-0.36148 -2.15516,-0.95071 -3.29039,-1.16199 -25.31383,-0.62776 -50.86821,-0.7748 -75.740034,-6.10226 -4.408862,-0.96847 -8.852675,-1.97491 -13.144124,-3.31722 -0.964778,-0.97692 -1.929556,-1.95384 -2.894334,-2.93076 z"
         id="path73372"
         sodipodi:nodetypes="ccccccccscccccccccccc" /><path
         style="color:#000000;fill:#000000;stroke-width:3.66258;-inkscape-stroke:none"
         d="m 163.04142,259.40146 c -0.31617,0.52914 -0.63235,1.05827 -0.94852,1.58741 -3.20154,0.0236 -6.40976,-0.0168 -9.59934,-0.31304 -0.69729,-0.0918 -1.39458,-0.18365 -2.09187,-0.27548 0.37979,1.0347 0.726,2.08236 1.13026,3.10763 0.66009,1.46539 1.1373,3.0138 1.93865,4.41446 0.33335,0.62354 0.65763,1.25171 1.0458,1.84337 -0.87199,0.29148 -1.80762,0.34928 -2.66743,0.68816 -1.60173,0.6292 -3.19365,1.28404 -4.77806,1.95582 -0.0495,0.0901 -0.66888,0.12656 -0.39897,0.44575 0.3911,1.07101 0.78221,2.14203 1.17332,3.21305 4.25881,-1.29053 8.51763,-2.58107 12.77644,-3.8716 0.79076,-1.99198 1.62148,-3.97102 2.61928,-5.86976 0.43786,-0.8744 0.94911,-1.70845 1.37884,-2.58693 0.0865,-0.19279 0.21898,-0.37924 0.27812,-0.5758 -0.0971,-0.4477 -0.17116,-0.90485 -0.28262,-1.34667 -0.52463,-0.80546 -1.04927,-1.61091 -1.5739,-2.41637 z"
         id="path73378"
         sodipodi:nodetypes="ccccccccccccccccccccccc" /><path
         style="color:#000000;fill:#000000;stroke:none;stroke-width:3.66258;-inkscape-stroke:none"
         d="m 434.15336,400.46493 c -5.5928,13.51789 -16.5954,24.20962 -29.31855,31.12458 -17.94685,9.80575 -38.22357,14.18624 -58.29711,17.10924 -22.72347,3.16706 -45.68409,4.21281 -68.60494,4.59565 0.41945,1.18088 0.8389,2.36176 1.25835,3.54264 32.23824,2.34818 64.57812,0.70658 96.84944,0.58298 18.28655,-3.32536 36.31327,-11.3627 48.85098,-25.42729 7.51946,-8.4446 12.72346,-19.36039 12.78661,-30.81115 -1.17493,-0.23888 -2.34985,-0.47777 -3.52478,-0.71665 z"
         id="path73384"
         sodipodi:nodetypes="cscccccccccccccccccccscccccccssccsccscscccsccccccccccssccccscc" /></g></g></svg>
